<svg width="37" height="37" viewBox="0 0 37 37" fill="none" xmlns="http://www.w3.org/2000/svg">
<g id="map-pin">
<path id="Vector" d="M32.375 15.4166C32.375 26.2083 18.5 35.4583 18.5 35.4583C18.5 35.4583 4.625 26.2083 4.625 15.4166C4.625 11.7367 6.08683 8.20759 8.68889 5.60552C11.291 3.00345 14.8201 1.54163 18.5 1.54163C22.1799 1.54163 25.709 3.00345 28.3111 5.60552C30.9132 8.20759 32.375 11.7367 32.375 15.4166Z" stroke="#4AC974" stroke-width="2" stroke-linecap="round" stroke-linejoin="round"/>
<path id="Vector_2" d="M18.5 20.0416C21.0543 20.0416 23.125 17.9709 23.125 15.4166C23.125 12.8623 21.0543 10.7916 18.5 10.7916C15.9457 10.7916 13.875 12.8623 13.875 15.4166C13.875 17.9709 15.9457 20.0416 18.5 20.0416Z" stroke="#4AC974" stroke-width="2" stroke-linecap="round" stroke-linejoin="round"/>
</g>
</svg>
